<svg width="50" height="50" viewBox="0 0 50 50" fill="none" xmlns="http://www.w3.org/2000/svg">
<path fill-rule="evenodd" clip-rule="evenodd" d="M26.7066 50H2.75962C1.23507 50 0 48.7642 0 47.2402V2.7596C0 1.23527 1.23527 0 2.75962 0H47.2406C48.7645 0 50 1.23527 50 2.7596V47.2402C50 48.7643 48.7643 50 47.2406 50H34.4993V30.6372H40.9985L41.9716 23.0912H34.4993V18.2736C34.4993 16.0888 35.1059 14.6 38.2388 14.6L42.2347 14.5983V7.84906C41.5436 7.7571 39.1716 7.55164 36.412 7.55164C30.6509 7.55164 26.7066 11.0683 26.7066 17.5263V23.0912H20.1907V30.6372H26.7066V50Z" fill="#4460A0"/>
</svg>
