<svg width="50" height="50" viewBox="0 0 50 50" fill="none" xmlns="http://www.w3.org/2000/svg">
<path d="M39.2857 0H10.7143C4.79695 0 0 4.79695 0 10.7143V39.2857C0 45.2031 4.79695 50 10.7143 50H39.2857C45.2031 50 50 45.2031 50 39.2857V10.7143C50 4.79695 45.2031 0 39.2857 0Z" fill="url(#paint0_radial_5482_34756)"/>
<path d="M39.2857 0H10.7143C4.79695 0 0 4.79695 0 10.7143V39.2857C0 45.2031 4.79695 50 10.7143 50H39.2857C45.2031 50 50 45.2031 50 39.2857V10.7143C50 4.79695 45.2031 0 39.2857 0Z" fill="url(#paint1_radial_5482_34756)"/>
<path d="M39.2857 0H10.7143C4.79695 0 0 4.79695 0 10.7143V39.2857C0 45.2031 4.79695 50 10.7143 50H39.2857C45.2031 50 50 45.2031 50 39.2857V10.7143C50 4.79695 45.2031 0 39.2857 0Z" fill="url(#paint2_radial_5482_34756)"/>
<path d="M37.5 15.1786C37.5 16.6579 36.3007 17.8571 34.8214 17.8571C33.3421 17.8571 32.1429 16.6579 32.1429 15.1786C32.1429 13.6992 33.3421 12.5 34.8214 12.5C36.3007 12.5 37.5 13.6992 37.5 15.1786Z" fill="white"/>
<path fill-rule="evenodd" clip-rule="evenodd" d="M25 33.9286C29.9311 33.9286 33.9286 29.9311 33.9286 25C33.9286 20.0689 29.9311 16.0714 25 16.0714C20.0689 16.0714 16.0714 20.0689 16.0714 25C16.0714 29.9311 20.0689 33.9286 25 33.9286ZM25 30.3571C27.9588 30.3571 30.3571 27.9588 30.3571 25C30.3571 22.0413 27.9588 19.6429 25 19.6429C22.0413 19.6429 19.6429 22.0413 19.6429 25C19.6429 27.9588 22.0413 30.3571 25 30.3571Z" fill="white"/>
<path fill-rule="evenodd" clip-rule="evenodd" d="M7.14286 24.2857C7.14286 18.2852 7.14286 15.2848 8.31064 12.993C9.33786 10.9769 10.9769 9.33786 12.993 8.31064C15.2848 7.14286 18.2852 7.14286 24.2857 7.14286H25.7143C31.7148 7.14286 34.7152 7.14286 37.007 8.31064C39.023 9.33786 40.6621 10.9769 41.6893 12.993C42.8571 15.2848 42.8571 18.2852 42.8571 24.2857V25.7143C42.8571 31.7148 42.8571 34.7152 41.6893 37.007C40.6621 39.023 39.023 40.6621 37.007 41.6893C34.7152 42.8571 31.7148 42.8571 25.7143 42.8571H24.2857C18.2852 42.8571 15.2848 42.8571 12.993 41.6893C10.9769 40.6621 9.33786 39.023 8.31064 37.007C7.14286 34.7152 7.14286 31.7148 7.14286 25.7143V24.2857ZM24.2857 10.7143H25.7143C28.7736 10.7143 30.853 10.7171 32.4605 10.8484C34.0264 10.9763 34.8271 11.2082 35.3857 11.4928C36.7296 12.1776 37.8223 13.2703 38.5071 14.6143C38.7918 15.1729 39.0238 15.9736 39.1516 17.5395C39.2829 19.147 39.2857 21.2264 39.2857 24.2857V25.7143C39.2857 28.7736 39.2829 30.853 39.1516 32.4605C39.0238 34.0264 38.7918 34.8271 38.5071 35.3857C37.8223 36.7296 36.7296 37.8223 35.3857 38.5071C34.8271 38.7918 34.0264 39.0238 32.4605 39.1516C30.853 39.2829 28.7736 39.2857 25.7143 39.2857H24.2857C21.2264 39.2857 19.147 39.2829 17.5395 39.1516C15.9736 39.0238 15.1729 38.7918 14.6143 38.5071C13.2703 37.8223 12.1776 36.7296 11.4928 35.3857C11.2082 34.8271 10.9763 34.0264 10.8484 32.4605C10.7171 30.853 10.7143 28.7736 10.7143 25.7143V24.2857C10.7143 21.2264 10.7171 19.147 10.8484 17.5395C10.9763 15.9736 11.2082 15.1729 11.4928 14.6143C12.1776 13.2703 13.2703 12.1776 14.6143 11.4928C15.1729 11.2082 15.9736 10.9763 17.5395 10.8484C19.147 10.7171 21.2264 10.7143 24.2857 10.7143Z" fill="white"/>
<defs>
<radialGradient id="paint0_radial_5482_34756" cx="0" cy="0" r="1" gradientUnits="userSpaceOnUse" gradientTransform="translate(17.8571 37.5) rotate(-55.3758) scale(45.5707)">
<stop stop-color="#B13589"/>
<stop offset="0.79309" stop-color="#C62F94"/>
<stop offset="1" stop-color="#8A3AC8"/>
</radialGradient>
<radialGradient id="paint1_radial_5482_34756" cx="0" cy="0" r="1" gradientUnits="userSpaceOnUse" gradientTransform="translate(16.0714 51.7857) rotate(-65.1363) scale(40.3468)">
<stop stop-color="#E0E8B7"/>
<stop offset="0.444662" stop-color="#FB8A2E"/>
<stop offset="0.71474" stop-color="#E2425C"/>
<stop offset="1" stop-color="#E2425C" stop-opacity="0"/>
</radialGradient>
<radialGradient id="paint2_radial_5482_34756" cx="0" cy="0" r="1" gradientUnits="userSpaceOnUse" gradientTransform="translate(-2.67857 1.78571) rotate(-8.1301) scale(69.448 14.8542)">
<stop offset="0.156701" stop-color="#406ADC"/>
<stop offset="0.467799" stop-color="#6A45BE"/>
<stop offset="1" stop-color="#6A45BE" stop-opacity="0"/>
</radialGradient>
</defs>
</svg>
