<svg width="50" height="50" viewBox="0 0 50 50" fill="none" xmlns="http://www.w3.org/2000/svg">
<path d="M42.6042 42.6041H35.1958V30.9999C35.1958 28.2333 35.1458 24.6708 31.3417 24.6708C27.4833 24.6708 26.8917 27.6875 26.8917 30.7958V42.6041H19.4833V18.7417H26.5958V22.0041H26.6958C28.1458 19.5292 30.8458 18.0458 33.7125 18.15C41.2208 18.15 42.6083 23.0875 42.6083 29.5166L42.6042 42.5999V42.6041ZM11.125 15.4792C9.98697 15.4737 8.89706 15.0195 8.09195 14.2152C7.28685 13.4108 6.83157 12.3214 6.825 11.1834C6.825 8.82503 8.76667 6.88337 11.125 6.88337C13.4833 6.88337 15.4208 8.82503 15.425 11.1834C15.425 13.5417 13.4833 15.4792 11.125 15.4792ZM14.8292 42.6041H7.4125V18.7417H14.8292V42.6041ZM46.2917 6.19299e-05H3.6875C2.72146 -0.005549 1.79224 0.370309 1.10176 1.04596C0.411287 1.72161 0.0153528 2.64245 0 3.60838V46.3916C0.0153528 47.3575 0.411287 48.2783 1.10176 48.954C1.79224 49.6296 2.72146 50.0055 3.6875 49.9999H46.2958C47.2641 50.0077 48.1963 49.6331 48.8899 48.9574C49.5835 48.2818 49.9825 47.3597 50 46.3916V3.60422C49.9825 2.63683 49.5833 1.71559 48.8894 1.04126C48.1956 0.36693 47.2633 -0.00582603 46.2958 0.00422828L46.2917 6.19299e-05Z" fill="#0A66C2"/>
</svg>
