<svg width="76" height="75" viewBox="0 0 76 75" fill="none" xmlns="http://www.w3.org/2000/svg">
<rect x="1" y="0.5" width="74" height="74" rx="37" fill="white"/>
<rect x="1" y="0.5" width="74" height="74" rx="37" stroke="url(#paint0_linear_5805_36970)"/>
<path d="M21.8332 54.6673C20.6873 54.6673 19.6978 54.268 18.8644 53.4694C18.0658 52.6361 17.6665 51.6465 17.6665 50.5007V25.5006C17.6665 24.3548 18.0658 23.3826 18.8644 22.584C19.6978 21.7507 20.6873 21.334 21.8332 21.334H55.1665C56.3123 21.334 57.2846 21.7507 58.0832 22.584C58.9165 23.3826 59.3332 24.3548 59.3332 25.5006V50.5007C59.3332 51.6465 58.9165 52.6361 58.0832 53.4694C57.2846 54.268 56.3123 54.6673 55.1665 54.6673H21.8332ZM38.4998 40.084L55.1665 29.6673V25.5006L38.4998 35.9173L21.8332 25.5006V29.6673L38.4998 40.084Z" fill="url(#paint1_linear_5805_36970)"/>
<defs>
<linearGradient id="paint0_linear_5805_36970" x1="38" y1="0" x2="38" y2="75" gradientUnits="userSpaceOnUse">
<stop stop-color="#F0DD50"/>
<stop offset="1" stop-color="#838388"/>
</linearGradient>
<linearGradient id="paint1_linear_5805_36970" x1="56.5" y1="21" x2="17.5" y2="53" gradientUnits="userSpaceOnUse">
<stop offset="0.241989" stop-color="#F0DD50"/>
<stop offset="0.843226" stop-color="#838388"/>
</linearGradient>
</defs>
</svg>
