<svg width="75" height="75" viewBox="0 0 75 75" fill="none" xmlns="http://www.w3.org/2000/svg">
<rect x="0.5" y="0.5" width="74" height="74" rx="37" fill="white"/>
<rect x="0.5" y="0.5" width="74" height="74" rx="37" stroke="url(#paint0_linear_6439_37017)"/>
<path d="M21.3332 54.6673C20.1873 54.6673 19.1978 54.268 18.3644 53.4694C17.5658 52.6361 17.1665 51.6465 17.1665 50.5007V25.5006C17.1665 24.3548 17.5658 23.3826 18.3644 22.584C19.1978 21.7507 20.1873 21.334 21.3332 21.334H54.6665C55.8123 21.334 56.7846 21.7507 57.5832 22.584C58.4165 23.3826 58.8332 24.3548 58.8332 25.5006V50.5007C58.8332 51.6465 58.4165 52.6361 57.5832 53.4694C56.7846 54.268 55.8123 54.6673 54.6665 54.6673H21.3332ZM37.9998 40.084L54.6665 29.6673V25.5006L37.9998 35.9173L21.3332 25.5006V29.6673L37.9998 40.084Z" fill="url(#paint1_linear_6439_37017)"/>
<defs>
<linearGradient id="paint0_linear_6439_37017" x1="57.5" y1="5.5" x2="16" y2="66.5" gradientUnits="userSpaceOnUse">
<stop offset="0.478735" stop-color="#192752"/>
<stop offset="1" stop-color="#E6B927"/>
</linearGradient>
<linearGradient id="paint1_linear_6439_37017" x1="56" y1="21" x2="17" y2="53" gradientUnits="userSpaceOnUse">
<stop offset="0.274038" stop-color="#022352"/>
<stop offset="0.966346" stop-color="#E6B927"/>
</linearGradient>
</defs>
</svg>
