<svg width="100" height="101" viewBox="0 0 100 101" fill="none" xmlns="http://www.w3.org/2000/svg">
<rect x="0.5" y="1" width="99" height="99" rx="49.5" fill="#4CAF50"/>
<rect x="0.5" y="1" width="99" height="99" rx="49.5" stroke="#4CAF50"/>
<path d="M70.0001 60.8402V66.8402C70.0024 67.3972 69.8883 67.9485 69.6651 68.4589C69.442 68.9692 69.1147 69.4274 68.7043 69.8039C68.2938 70.1805 67.8093 70.4672 67.2816 70.6456C66.754 70.8241 66.1949 70.8903 65.6401 70.8402C59.4858 70.1715 53.5741 68.0685 48.3801 64.7002C43.5478 61.6295 39.4508 57.5325 36.3801 52.7002C33.0001 47.4826 30.8966 41.5422 30.2401 35.3602C30.1901 34.8071 30.2559 34.2497 30.4331 33.7234C30.6104 33.1972 30.8953 32.7136 31.2696 32.3034C31.644 31.8933 32.0997 31.5656 32.6077 31.3412C33.1157 31.1169 33.6648 31.0007 34.2201 31.0002H40.2201C41.1907 30.9906 42.1317 31.3344 42.8676 31.9673C43.6036 32.6002 44.0843 33.4791 44.2201 34.4402C44.4734 36.3603 44.943 38.2456 45.6201 40.0602C45.8892 40.776 45.9474 41.554 45.7879 42.302C45.6284 43.0499 45.2578 43.7364 44.7201 44.2802L42.1801 46.8202C45.0272 51.8273 49.173 55.9731 54.1801 58.8202L56.7201 56.2802C57.2639 55.7425 57.9504 55.3719 58.6983 55.2124C59.4463 55.0529 60.2243 55.1111 60.9401 55.3802C62.7547 56.0573 64.64 56.5269 66.5601 56.7802C67.5316 56.9173 68.4189 57.4066 69.0532 58.1552C69.6874 58.9038 70.0244 59.8593 70.0001 60.8402Z" fill="white" stroke="white" stroke-width="4" stroke-linecap="round" stroke-linejoin="round"/>
</svg>
