<svg width="50" height="50" viewBox="0 0 50 50" fill="none" xmlns="http://www.w3.org/2000/svg">
<path fill-rule="evenodd" clip-rule="evenodd" d="M47.2278 49.9569L2.82083 50C1.29445 50.0014 0.0444458 48.7542 0.0430569 47.2278L1.15887e-06 2.82083C-0.00138773 1.29445 1.24583 0.0444458 2.77222 0.0430569L47.1792 1.15887e-06C48.7056 -0.00138773 49.9556 1.24583 49.9569 2.77222L50 47.1792C50.0014 48.7056 48.7542 49.9556 47.2278 49.9569Z" fill="url(#paint0_linear_5482_34758)"/>
<path fill-rule="evenodd" clip-rule="evenodd" d="M32.2337 20.2895C34.4226 21.8534 37.1046 22.7728 40.0004 22.7728V17.202C39.4518 17.202 38.9059 17.1451 38.3698 17.0312V21.4159C35.474 21.4159 32.7934 20.4951 30.6032 18.9326V30.2992C30.6032 35.9853 25.9907 40.5951 20.3018 40.5951C18.1796 40.5951 16.2059 39.9534 14.5671 38.8534C16.4379 40.7645 19.0462 41.9506 21.9323 41.9506C27.6212 41.9506 32.2337 37.3409 32.2337 31.6548V20.2895ZM34.2462 14.6701C33.1282 13.4492 32.3934 11.8701 32.2337 10.1242V9.40755H30.6879C31.0768 11.6256 32.4046 13.5214 34.2462 14.6701ZM18.1657 34.4909C17.5407 33.6714 17.2032 32.6701 17.2046 31.6395C17.2046 29.0381 19.3143 26.9298 21.9171 26.9298C22.4018 26.9298 22.8837 27.0034 23.3462 27.1506V21.4562C22.8059 21.3826 22.2615 21.3506 21.7157 21.3617V25.7937C21.2532 25.6464 20.7712 25.5728 20.2851 25.5728C17.6823 25.5728 15.5726 27.6812 15.5726 30.2826C15.574 32.1228 16.6282 33.7159 18.1657 34.4909Z" fill="#EC407A"/>
<path fill-rule="evenodd" clip-rule="evenodd" d="M30.6032 18.9326C32.7921 20.4964 35.474 21.4159 38.3698 21.4159V17.0312C36.7532 16.6867 35.3235 15.8423 34.2472 14.6687C32.4055 13.5201 31.0791 11.6256 30.6902 9.40755H26.6305V31.6548C26.6208 34.2478 24.5152 36.3478 21.918 36.3478C20.3874 36.3478 19.0277 35.6187 18.1666 34.4895C16.6291 33.7145 15.5749 32.1214 15.5749 30.2826C15.5749 27.6812 17.6847 25.5728 20.2874 25.5728C20.786 25.5728 21.2666 25.6506 21.718 25.7937V21.3631C16.1291 21.4784 11.6347 26.0423 11.6347 31.6562C11.6347 34.4589 12.7541 36.9992 14.5708 38.8548C16.2097 39.9548 18.1833 40.5964 20.3055 40.5964C25.9944 40.5964 30.6069 35.9867 30.6069 30.3006L30.6032 18.9326Z" fill="white"/>
<path fill-rule="evenodd" clip-rule="evenodd" d="M38.3684 17.0332V15.847C36.91 15.8498 35.4822 15.4415 34.2447 14.6693C35.3392 15.8679 36.7809 16.6943 38.3684 17.0332ZM30.6864 9.40816C30.6489 9.19566 30.6211 8.98316 30.6017 8.76788V8.05122H24.9961V30.2998C24.9878 32.8929 22.8809 34.9929 20.2836 34.9929C19.5211 34.9929 18.8017 34.8123 18.1642 34.4901C19.0253 35.6193 20.385 36.3484 21.9156 36.3484C24.5128 36.3484 26.6184 34.2484 26.6281 31.6554V9.40816H30.6864ZM21.7142 21.3637V20.1012C21.2461 20.0373 20.7739 20.0054 20.3003 20.0054C14.61 20.0054 9.99891 24.6151 9.99891 30.3012C9.99891 33.8665 11.8114 37.0082 14.5656 38.8554C12.7489 36.9998 11.6295 34.4595 11.6295 31.6568C11.6295 26.0429 16.1253 21.479 21.7142 21.3637Z" fill="#81D4FA"/>
<defs>
<linearGradient id="paint0_linear_5482_34758" x1="24.9681" y1="0.220834" x2="24.9681" y2="50.0639" gradientUnits="userSpaceOnUse">
<stop stop-color="#4C4C4C"/>
<stop offset="1" stop-color="#343434"/>
</linearGradient>
</defs>
</svg>
